<svg width="465" height="402" viewBox="0 0 465 402" fill="none" xmlns="http://www.w3.org/2000/svg">
<g clip-path="url(#clip0_107_3175)">
<path d="M66.56 367.96C155.32 413.34 299.23 413.34 387.98 367.96C476.73 322.58 476.74 248.96 387.98 203.63C299.22 158.3 155.32 158.25 66.56 203.63C-22.2 249.01 -22.19 322.59 66.56 367.96Z" fill="#F5F5F5"/>
<path d="M356.84 295.47C361.71 298.28 371.27 297.31 378.19 293.31L418.11 270.12C425.04 266.12 426.7 260.6 421.83 257.78C416.96 254.96 407.41 255.96 400.48 259.96L360.58 283.17C353.65 287.14 351.98 292.66 356.84 295.47Z" fill="#EBEBEB"/>
<path d="M116.42 316.86L75.81 293.41L116.42 269.95V316.86Z" fill="#EBEBEB"/>
<path d="M231.23 330.89L165.76 293.07L231.25 255.32L231.23 330.89Z" fill="#EBEBEB"/>
<path d="M61.47 262.03C61.59 252.53 54.95 232.76 45.24 220.31C35.53 207.86 20.11 198.65 9.10999 202.28C-1.19001 205.67 -0.240006 219.13 12.11 228.2C24.46 237.27 43.01 248.69 48.3 264.2L59.55 283.2L61.47 262.03Z" fill="#27DEBF"/>
<path opacity="0.1" d="M61.47 262.03C61.59 252.53 54.95 232.76 45.24 220.31C35.53 207.86 20.11 198.65 9.10999 202.28C-1.19001 205.67 -0.240006 219.13 12.11 228.2C24.46 237.27 43.01 248.69 48.3 264.2L59.55 283.2L61.47 262.03Z" fill="black"/>
<path d="M62.02 275.04C61.8682 275.027 61.7251 274.964 61.613 274.861C61.5008 274.758 61.4259 274.62 61.4 274.47C55.4 241.96 29.5 215.28 13.87 209.27C13.7756 209.244 13.6876 209.199 13.6117 209.137C13.5358 209.075 13.4738 208.998 13.4295 208.911C13.3853 208.824 13.3599 208.728 13.3549 208.63C13.3499 208.533 13.3655 208.435 13.4007 208.343C13.4358 208.252 13.4897 208.169 13.5589 208.1C13.6281 208.031 13.7111 207.977 13.8024 207.942C13.8938 207.906 13.9915 207.891 14.0892 207.896C14.187 207.901 14.2827 207.926 14.37 207.97C30.3 214.1 56.7 241.22 62.76 274.22C62.7774 274.309 62.7769 274.401 62.7587 274.491C62.7404 274.58 62.7047 274.664 62.6536 274.74C62.6024 274.815 62.5369 274.879 62.4608 274.929C62.3847 274.979 62.2994 275.013 62.21 275.03L62.02 275.04Z" fill="white"/>
<path d="M56.93 295.74C55.47 290.38 49.05 281.49 38.59 274.08C27.01 265.89 12.29 262.01 8.95999 255.7C4.95999 248.12 11.39 241.08 23.36 242.7C35.33 244.32 56.21 260.96 59.29 285.62L56.93 295.74Z" fill="#27DEBF"/>
<path d="M59.32 290.16C59.1864 290.149 59.0589 290.1 58.9526 290.018C58.8462 289.937 58.7655 289.826 58.72 289.7C49.11 261.79 28.03 251.78 18.23 250.39C18.0483 250.365 17.8841 250.269 17.7735 250.122C17.6628 249.976 17.6148 249.792 17.64 249.61C17.6652 249.428 17.7615 249.264 17.9078 249.154C18.0541 249.043 18.2383 248.995 18.42 249.02C29.26 250.56 50.23 260.76 60.04 289.24C60.098 289.415 60.0856 289.606 60.0053 289.772C59.925 289.938 59.7833 290.067 59.61 290.13C59.5163 290.159 59.4177 290.169 59.32 290.16Z" fill="white"/>
<path d="M416.04 234.96C416.04 234.96 417.37 214.96 429.17 200.06C440.97 185.16 440.25 179.06 432.11 176.06C423.97 173.06 405.11 191.01 409.27 214.96C413.43 238.91 416.04 234.96 416.04 234.96Z" fill="#27DEBF"/>
<path opacity="0.1" d="M416.04 234.96C416.04 234.96 417.37 214.96 429.17 200.06C440.97 185.16 440.25 179.06 432.11 176.06C423.97 173.06 405.11 191.01 409.27 214.96C413.43 238.91 416.04 234.96 416.04 234.96Z" fill="black"/>
<path d="M412.43 223.54C412.312 223.541 412.198 223.497 412.111 223.417C412.024 223.337 411.97 223.228 411.96 223.11C410.59 201.05 426.16 182.95 431.96 178.85C432.009 178.814 432.064 178.788 432.123 178.774C432.182 178.76 432.244 178.758 432.303 178.769C432.363 178.779 432.42 178.801 432.471 178.834C432.522 178.867 432.566 178.91 432.6 178.96C432.671 179.061 432.699 179.186 432.678 179.308C432.657 179.429 432.59 179.538 432.49 179.61C426.77 183.61 411.49 201.38 412.85 223.05C412.856 223.172 412.814 223.29 412.734 223.382C412.654 223.473 412.541 223.53 412.42 223.54H412.43Z" fill="white"/>
<path d="M412.83 251.52C418.144 253.256 423.588 254.567 429.11 255.44C438.25 256.88 442.29 252.51 442.29 252.51C442.29 252.51 438.69 243.94 433.5 241.51C439.115 242.771 444.478 244.972 449.36 248.02C449.36 248.02 454.94 248.11 457.16 239.59C457.16 239.59 453.86 234.46 442.76 231.69C442.76 231.69 449.51 229.99 459.24 232.47C459.97 232.76 463.08 221.75 464.02 216.67C464.96 211.59 462.92 211.67 458.96 210.58C455 209.49 441.87 206.58 439.39 208.75C436.91 210.92 435.65 218.38 435.65 218.38C434.668 215.326 434.54 212.061 435.28 208.94C435.28 208.94 431.72 207.55 426.18 209.16C421.66 210.47 421.44 213.55 421.64 217.03C421.908 220.053 422.58 223.026 423.64 225.87C423.64 225.87 420.11 221.35 420 211.54C420 211.54 410.74 216.14 409.16 225.34C408.24 230.33 407.02 244.96 412.83 251.52Z" fill="#27DEBF"/>
<path d="M414.57 249.74C414.667 249.74 414.763 249.712 414.846 249.661C414.929 249.61 414.996 249.537 415.04 249.45C422.41 234.12 449.84 216.31 459.66 214.4C459.727 214.388 459.79 214.363 459.847 214.326C459.904 214.289 459.952 214.242 459.991 214.186C460.029 214.13 460.055 214.067 460.069 214.001C460.083 213.935 460.083 213.866 460.07 213.8C460.041 213.666 459.961 213.549 459.848 213.472C459.734 213.396 459.595 213.366 459.46 213.39C449.46 215.34 421.6 233.39 414.11 249C414.051 249.124 414.043 249.265 414.088 249.394C414.133 249.524 414.227 249.63 414.35 249.69C414.419 249.721 414.494 249.738 414.57 249.74Z" fill="white"/>
<path d="M57.89 302.82C56.76 302.82 56.08 301.89 56.08 300.32V132.11L262.11 13.1802V180.71C262.039 182.109 261.64 183.471 260.945 184.687C260.25 185.903 259.279 186.939 258.11 187.71L59.53 302.31C59.0373 302.621 58.4719 302.796 57.89 302.82Z" fill="#FAFAFA"/>
<path d="M261.49 14.1902V180.71C261.406 182.008 261.024 183.268 260.374 184.394C259.724 185.519 258.822 186.48 257.74 187.2L59.24 301.8C58.8359 302.062 58.3706 302.213 57.89 302.24C56.78 302.24 56.66 300.89 56.66 300.32V132.45L261.49 14.1902ZM262.66 12.1902L55.49 131.77V300.32C55.49 302.32 56.49 303.41 57.89 303.41C58.5738 303.385 59.2392 303.182 59.82 302.82L258.33 188.21C259.59 187.388 260.639 186.28 261.391 184.977C262.143 183.674 262.578 182.212 262.66 180.71V12.1602V12.1902Z" fill="#E0E0E0"/>
<path d="M55.5 131.77V159.91L262.66 40.3102V12.1602L55.5 131.77Z" fill="#27DEBF"/>
<path d="M71.74 133.27V137.27C71.74 138.09 72.33 138.43 73.04 138.02L136.73 101.25V94.25L73.04 131.02C72.6638 131.269 72.3505 131.601 72.1249 131.992C71.8993 132.382 71.7675 132.82 71.74 133.27Z" fill="#FAFAFA"/>
<path d="M143.56 90.3101C144.28 89.8901 144.86 90.2301 144.86 91.0601V95.0601C144.834 95.5106 144.703 95.9488 144.477 96.3395C144.251 96.7302 143.937 97.0626 143.56 97.3101L136.73 101.25V94.2501L143.56 90.3101Z" fill="#455A64"/>
<path d="M55.49 122.7C55.5721 121.198 56.0069 119.736 56.7591 118.433C57.5114 117.13 58.56 116.022 59.82 115.2L258.33 0.590094C260.72 -0.789906 262.66 0.330094 262.66 3.09009V12.1601L55.49 131.77V122.7Z" fill="#455A64"/>
<path d="M239.63 16.1C239.044 16.487 238.558 17.0064 238.211 17.6162C237.863 18.226 237.664 18.909 237.63 19.61C237.63 20.91 238.54 21.43 239.63 20.79C240.216 20.4009 240.702 19.8796 241.049 19.2682C241.397 18.6568 241.596 17.9724 241.63 17.27C241.67 15.96 240.76 15.45 239.63 16.1Z" fill="#27DEBF"/>
<path d="M246.11 12.3802C245.524 12.7671 245.038 13.2866 244.691 13.8963C244.343 14.5061 244.144 15.1892 244.11 15.8902C244.11 17.1902 245.02 17.7102 246.11 17.0702C246.695 16.6799 247.18 16.1584 247.527 15.5472C247.874 14.936 248.074 14.2522 248.11 13.5502C248.11 12.2502 247.19 11.7302 246.11 12.3802Z" fill="#27DEBF"/>
<path d="M252.5 8.6602C251.914 9.04718 251.428 9.56658 251.081 10.1764C250.733 10.7862 250.534 11.4692 250.5 12.1702C250.5 13.4702 251.41 13.9902 252.5 13.3502C253.085 12.9599 253.57 12.4384 253.917 11.8272C254.264 11.2161 254.464 10.5322 254.5 9.8302C254.53 8.5302 253.62 8.0102 252.5 8.6602Z" fill="#27DEBF"/>
<g opacity="0.1">
<path d="M197.66 58.6299C196.368 59.4749 195.294 60.6125 194.525 61.9503C193.755 63.2881 193.311 64.7886 193.23 66.3299C193.23 69.1599 195.23 70.3299 197.66 68.8899C198.953 68.0481 200.029 66.9129 200.801 65.5766C201.572 64.2403 202.018 62.7407 202.1 61.1999C202.11 58.3699 200.11 57.2199 197.66 58.6299Z" fill="black"/>
<path d="M177.36 70.3599C176.067 71.2017 174.991 72.3369 174.219 73.6732C173.448 75.0095 173.002 76.5091 172.92 78.0499C172.92 80.8799 174.92 82.0499 177.36 80.6199C178.652 79.7749 179.726 78.6373 180.495 77.2995C181.265 75.9617 181.709 74.4612 181.79 72.9199C181.79 70.0899 179.81 68.9599 177.36 70.3599Z" fill="black"/>
<path d="M217.97 46.9601C216.679 47.803 215.604 48.9387 214.835 50.2749C214.065 51.6111 213.621 53.1102 213.54 54.6501C213.54 57.4801 215.54 58.6501 217.97 57.2101C219.264 56.3689 220.34 55.2339 221.112 53.8974C221.884 52.561 222.328 51.0611 222.41 49.5201C222.41 46.6401 220.43 45.4901 217.97 46.9601Z" fill="black"/>
<path d="M238.29 35.16C236.997 36.0017 235.921 37.1369 235.149 38.4732C234.378 39.8095 233.932 41.3091 233.85 42.85C233.85 45.68 235.85 46.85 238.29 45.41C239.583 44.5682 240.659 43.433 241.431 42.0967C242.202 40.7604 242.648 39.2608 242.73 37.72C242.73 34.89 240.74 33.74 238.29 35.16Z" fill="black"/>
</g>
<path d="M76.11 162.11L124.32 134.27C126.71 132.89 128.65 134.01 128.65 136.77V183.06C128.568 184.562 128.133 186.024 127.381 187.327C126.629 188.63 125.58 189.738 124.32 190.56L76.11 218.39C73.72 219.77 71.78 218.65 71.78 215.89V169.61C71.8621 168.108 72.2969 166.646 73.0491 165.343C73.8014 164.04 74.85 162.932 76.11 162.11Z" fill="#E0E0E0"/>
<path d="M145.11 122.24L246.11 63.9601C248.5 62.5701 250.44 63.6901 250.44 66.4601V112.74C250.358 114.242 249.923 115.704 249.171 117.007C248.419 118.31 247.37 119.418 246.11 120.24L145.11 178.52C142.72 179.9 140.78 178.78 140.78 176.02V129.74C140.862 128.238 141.297 126.776 142.049 125.473C142.801 124.17 143.85 123.062 145.11 122.24Z" fill="#E0E0E0"/>
<path d="M76.11 232.46L152.75 188.21C155.15 186.83 157.09 187.81 157.09 190.4C156.983 191.854 156.535 193.263 155.783 194.512C155.031 195.761 153.995 196.816 152.76 197.59L76.11 241.84C73.72 243.22 71.78 242.24 71.78 239.65C71.8869 238.196 72.3345 236.787 73.0867 235.538C73.839 234.289 74.8746 233.235 76.11 232.46Z" fill="#E0E0E0"/>
<path d="M76.11 248.88L152.75 204.63C155.15 203.25 157.09 204.23 157.09 206.82C156.983 208.274 156.535 209.683 155.783 210.932C155.031 212.181 153.995 213.235 152.76 214.01L76.11 258.26C73.72 259.64 71.78 258.66 71.78 256.07C71.8869 254.616 72.3345 253.207 73.0867 251.958C73.839 250.709 74.8746 249.655 76.11 248.88Z" fill="#E0E0E0"/>
<path d="M76.11 265.29L152.75 221.04C155.15 219.66 157.09 220.64 157.09 223.23C156.983 224.684 156.535 226.093 155.783 227.342C155.031 228.591 153.995 229.646 152.76 230.42L76.11 274.67C73.72 276.05 71.78 275.07 71.78 272.48C71.8869 271.026 72.3345 269.617 73.0867 268.368C73.839 267.119 74.8746 266.065 76.11 265.29Z" fill="#E0E0E0"/>
<path d="M112.36 209.63C112.411 208.729 112.673 207.852 113.125 207.071C113.576 206.289 114.205 205.624 114.96 205.13L247.87 128.4C248.676 127.991 249.566 127.777 250.47 127.777C251.374 127.777 252.264 127.991 253.07 128.4L256 130.09C256.755 130.584 257.383 131.249 257.833 132.03C258.283 132.812 258.542 133.689 258.59 134.59V236.47C258.541 237.37 258.281 238.247 257.831 239.028C257.381 239.81 256.754 240.475 256 240.97L123.11 317.7C122.304 318.109 121.414 318.323 120.51 318.323C119.606 318.323 118.716 318.109 117.91 317.7L114.98 316.01C114.224 315.516 113.595 314.852 113.144 314.07C112.692 313.288 112.43 312.411 112.38 311.51L112.36 209.63Z" fill="#27DEBF"/>
<path opacity="0.4" d="M113.11 207.07L120.49 211.33L257.82 132.03C257.381 131.239 256.752 130.569 255.99 130.08L253.11 128.4C252.308 127.991 251.42 127.778 250.52 127.778C249.62 127.778 248.732 127.991 247.93 128.4L114.96 205.13C114.19 205.61 113.553 206.278 113.11 207.07Z" fill="white"/>
<path opacity="0.1" d="M112.36 209.63V311.51C112.41 312.411 112.672 313.288 113.124 314.07C113.575 314.852 114.204 315.516 114.96 316.01L117.89 317.7C118.115 317.831 118.353 317.938 118.6 318.02C118.948 318.137 119.306 318.221 119.67 318.27C120.353 318.354 121.045 318.327 121.72 318.19C121.893 318.159 122.063 318.115 122.23 318.06L122.54 317.94C122.343 318.025 122.13 318.069 121.915 318.069C121.7 318.069 121.487 318.025 121.29 317.94C121.013 317.756 120.793 317.498 120.653 317.197C120.514 316.895 120.461 316.56 120.5 316.23V214.33C120.474 213.867 120.589 213.407 120.83 213.01C121.071 212.614 121.427 212.3 121.85 212.11L120.5 211.33L113.11 207.07C112.647 207.846 112.389 208.727 112.36 209.63Z" fill="black"/>
<path opacity="0.2" d="M120.5 211.33L182.05 234.33C184.178 235.123 186.514 235.168 188.671 234.458C190.828 233.747 192.68 232.323 193.92 230.42L203.8 215.28L258.32 131.75L205.77 215.85L258.59 236.52C258.546 237.438 258.267 238.33 257.78 239.11L205.63 216.11L194.11 234.46C192.834 236.499 190.866 238.009 188.566 238.714C186.266 239.42 183.79 239.273 181.59 238.3L173.41 234.69L121.29 317.96C121.013 317.776 120.793 317.518 120.653 317.217C120.514 316.915 120.461 316.58 120.5 316.25V314.56L173.18 234.63L120.5 211.33Z" fill="black"/>
<path d="M230.16 94.37V328.27C230.16 331.03 232.1 332.15 234.49 330.77L339.57 270.1C340.83 269.278 341.879 268.17 342.631 266.867C343.383 265.564 343.818 264.102 343.9 262.6V28.7C343.9 25.94 341.96 24.82 339.57 26.2L234.49 86.87C233.229 87.6911 232.179 88.7983 231.427 90.1015C230.675 91.4048 230.241 92.8673 230.16 94.37Z" fill="#FAFAFA" stroke="#E0E0E0" stroke-width="1.17" stroke-miterlimit="10"/>
<path d="M236.25 98.72C236.284 98.3497 236.403 97.9923 236.6 97.6764C236.796 97.3604 237.063 97.0946 237.38 96.9L249.38 89.99C250 89.63 250.5 89.87 250.5 90.52C250.468 90.8897 250.35 91.2468 250.156 91.5628C249.961 91.8788 249.696 92.145 249.38 92.3401L237.38 99.25C236.76 99.61 236.25 99.37 236.25 98.72Z" fill="#455A64"/>
<path d="M236.25 103.38C236.283 103.009 236.402 102.652 236.599 102.336C236.795 102.02 237.062 101.754 237.38 101.56L249.38 94.65C250 94.29 250.5 94.53 250.5 95.17C250.47 95.5415 250.352 95.9005 250.158 96.2184C249.963 96.5362 249.697 96.804 249.38 97L237.38 103.9C236.76 104.26 236.25 104.03 236.25 103.38Z" fill="#455A64"/>
<path d="M236.25 108.04C236.283 107.669 236.402 107.312 236.599 106.996C236.795 106.68 237.062 106.414 237.38 106.22L249.38 99.3101C250 98.9501 250.5 99.1801 250.5 99.8301C250.47 100.2 250.352 100.558 250.158 100.874C249.963 101.19 249.697 101.456 249.38 101.65L237.38 108.56C236.76 108.96 236.25 108.69 236.25 108.04Z" fill="#455A64"/>
<path d="M335.78 48.06V46.19C335.781 46.1672 335.776 46.1447 335.765 46.1246C335.754 46.1044 335.739 46.0875 335.719 46.0753C335.7 46.0632 335.678 46.0563 335.655 46.0553C335.633 46.0544 335.61 46.0594 335.59 46.07L334.15 46.72C334.127 46.7312 334.102 46.7372 334.077 46.7376C334.052 46.7379 334.027 46.7327 334.004 46.7221C333.981 46.7116 333.96 46.696 333.944 46.6766C333.928 46.6572 333.916 46.6345 333.91 46.61C333.834 46.3607 333.726 46.1221 333.59 45.9C333.563 45.8457 333.549 45.7857 333.549 45.725C333.549 45.6642 333.563 45.6043 333.59 45.55L334.59 43.61C334.615 43.5608 334.619 43.5039 334.602 43.4516C334.585 43.3992 334.549 43.3555 334.5 43.33L333.5 42.73C333.453 42.7059 333.398 42.6998 333.347 42.7126C333.295 42.7255 333.25 42.7565 333.22 42.8L332.02 44.6C331.984 44.6482 331.938 44.6871 331.884 44.7132C331.83 44.7394 331.77 44.752 331.71 44.75C331.448 44.7478 331.186 44.7747 330.93 44.83C330.906 44.8376 330.88 44.8395 330.854 44.8357C330.829 44.832 330.805 44.8225 330.784 44.8081C330.763 44.7936 330.745 44.7746 330.732 44.7525C330.719 44.7303 330.712 44.7055 330.71 44.68L330.55 43.11C330.55 43 330.45 42.95 330.36 43.01L328.74 43.94C328.689 43.9735 328.645 44.0177 328.613 44.0694C328.58 44.1212 328.558 44.1793 328.55 44.24L328.39 46.04C328.368 46.1677 328.309 46.2861 328.22 46.38C327.895 46.6904 327.595 47.0246 327.32 47.38C327.281 47.4248 327.231 47.4573 327.174 47.4733C327.117 47.4893 327.056 47.4882 327 47.47L326 47.11C325.946 47.093 325.889 47.0946 325.836 47.1145C325.783 47.1345 325.739 47.1717 325.71 47.22L324.52 49.28C324.496 49.3289 324.488 49.3842 324.497 49.438C324.506 49.4919 324.531 49.5415 324.57 49.58L325.41 50.3C325.451 50.341 325.48 50.3925 325.494 50.4489C325.508 50.5052 325.507 50.5644 325.49 50.62C325.336 51.0312 325.209 51.4521 325.11 51.88C325.076 52.0012 325.007 52.1093 324.91 52.19L323.43 53.19C323.381 53.2282 323.34 53.2765 323.311 53.3316C323.281 53.3868 323.264 53.4476 323.26 53.51V55.37C323.255 55.3939 323.257 55.4187 323.267 55.4412C323.277 55.4637 323.293 55.4827 323.313 55.4958C323.334 55.5088 323.358 55.5153 323.383 55.5142C323.407 55.5132 323.431 55.5047 323.45 55.49L324.89 54.84C324.914 54.8306 324.939 54.8264 324.964 54.8275C324.989 54.8285 325.014 54.835 325.037 54.8463C325.059 54.8576 325.079 54.8736 325.096 54.8932C325.112 54.9128 325.123 54.9355 325.13 54.96C325.206 55.2092 325.314 55.4478 325.45 55.67C325.477 55.7243 325.491 55.7842 325.491 55.845C325.491 55.9057 325.477 55.9656 325.45 56.02L324.45 57.95C324.427 58.001 324.424 58.0585 324.44 58.1119C324.457 58.1653 324.492 58.2108 324.54 58.24L325.54 58.84C325.587 58.864 325.642 58.8701 325.693 58.8573C325.745 58.8444 325.79 58.8134 325.82 58.77L327.02 56.97C327.056 56.9217 327.102 56.8828 327.156 56.8567C327.21 56.8306 327.27 56.818 327.33 56.82C327.592 56.8221 327.854 56.7953 328.11 56.74C328.134 56.7324 328.16 56.7304 328.186 56.7342C328.211 56.738 328.235 56.7474 328.256 56.7618C328.277 56.7763 328.295 56.7953 328.308 56.8175C328.321 56.8396 328.328 56.8644 328.33 56.89L328.49 58.46C328.49 58.57 328.58 58.62 328.68 58.56L330.3 57.63C330.351 57.5939 330.394 57.5478 330.427 57.4945C330.46 57.4412 330.481 57.3818 330.49 57.32L330.65 55.52C330.67 55.3945 330.729 55.2788 330.82 55.19C331.145 54.8795 331.445 54.5453 331.72 54.19C331.758 54.1451 331.809 54.1126 331.866 54.0966C331.923 54.0806 331.984 54.0817 332.04 54.1L333.04 54.46C333.094 54.4769 333.151 54.4753 333.204 54.4554C333.257 54.4354 333.301 54.3983 333.33 54.35L334.52 52.29C334.545 52.2389 334.553 52.1808 334.542 52.1248C334.532 52.0688 334.503 52.0179 334.46 51.98L333.63 51.27C333.589 51.2289 333.56 51.1774 333.546 51.1211C333.531 51.0647 333.533 51.0055 333.55 50.95C333.704 50.5387 333.831 50.1178 333.93 49.69C333.958 49.5663 334.029 49.4566 334.13 49.38L335.61 48.38C335.659 48.3409 335.699 48.2924 335.728 48.2374C335.757 48.1824 335.775 48.122 335.78 48.06ZM329.45 53.96C327.94 54.84 326.72 54.13 326.72 52.39C326.767 51.4401 327.039 50.5149 327.513 49.6908C327.988 48.8666 328.652 48.1671 329.45 47.65C330.96 46.78 332.18 47.49 332.18 49.23C332.132 50.1781 331.859 51.1013 331.384 51.9236C330.91 52.7458 330.247 53.4438 329.45 53.96Z" fill="#37474F"/>
<path d="M287.03 94.1599C299.31 87.0699 309.26 92.8199 309.26 107C309.26 121.18 299.31 138.41 287.03 145.5C274.75 152.59 264.8 146.84 264.8 132.67C264.8 118.5 274.75 101.25 287.03 94.1599Z" fill="#455A64"/>
<path d="M286.88 105.32C290.88 103.02 294.09 104.88 294.09 109.48C293.953 111.98 293.229 114.413 291.976 116.582C290.723 118.75 288.978 120.592 286.88 121.96C282.88 124.26 279.66 122.4 279.66 117.8C279.797 115.299 280.523 112.865 281.777 110.696C283.032 108.528 284.78 106.686 286.88 105.32Z" fill="#27DEBF"/>
<path d="M301.11 129.84C301.11 122.29 295.8 119.22 289.26 123L285.11 125.36C278.57 129.14 273.26 138.36 273.26 145.89V147.96C274.495 148.355 275.784 148.554 277.08 148.55C280.588 148.431 284.005 147.397 286.99 145.55C292.702 142.041 297.533 137.269 301.11 131.6V129.84Z" fill="#27DEBF"/>
<path d="M266.97 166.59L307.11 143.42C308.3 142.73 309.27 143.22 309.27 144.52C309.216 145.246 308.992 145.949 308.617 146.572C308.242 147.196 307.726 147.722 307.11 148.11L266.98 171.28C265.78 171.98 264.81 171.48 264.81 170.19C264.862 169.462 265.084 168.757 265.46 168.132C265.835 167.506 266.352 166.978 266.97 166.59Z" fill="#27DEBF"/>
<path d="M262.66 183.17L311.4 154.96C312.6 154.27 313.57 154.76 313.57 156.06C313.516 156.787 313.291 157.491 312.914 158.114C312.537 158.738 312.018 159.264 311.4 159.65L262.66 187.86C261.46 188.55 260.49 188.06 260.49 186.76C260.544 186.033 260.769 185.329 261.146 184.706C261.523 184.082 262.042 183.556 262.66 183.17Z" fill="#455A64"/>
<path d="M312.7 177.7L326.35 169.82C327.07 169.41 327.65 169.6 327.65 170.25C327.596 170.649 327.45 171.029 327.225 171.362C326.999 171.695 326.7 171.972 326.35 172.17L312.7 180.05C311.99 180.46 311.4 180.27 311.4 179.63C311.455 179.23 311.601 178.849 311.826 178.514C312.051 178.18 312.35 177.901 312.7 177.7Z" fill="#37474F"/>
<path d="M244.51 212.39L264.56 200.82C265.75 200.13 266.72 200.69 266.72 202.07V215.83C266.679 216.581 266.462 217.311 266.087 217.962C265.711 218.614 265.189 219.168 264.56 219.58L244.51 231.15C243.32 231.84 242.35 231.28 242.35 229.9V216.14C242.391 215.39 242.608 214.659 242.983 214.008C243.359 213.356 243.881 212.802 244.51 212.39Z" fill="#27DEBF"/>
<path d="M247.71 214.31L261.36 206.43C262.08 206.02 262.66 206.21 262.66 206.85C262.607 207.25 262.463 207.633 262.237 207.968C262.011 208.303 261.711 208.581 261.36 208.78L247.71 216.66C246.99 217.07 246.41 216.88 246.41 216.24C246.463 215.84 246.607 215.457 246.833 215.122C247.059 214.787 247.359 214.509 247.71 214.31Z" fill="#FAFAFA"/>
<path d="M246.41 221.25V225.25C246.41 226.08 246.99 226.41 247.71 226L261.36 218.12C261.738 217.874 262.053 217.541 262.279 217.15C262.505 216.76 262.636 216.321 262.66 215.87V211.87C262.66 211.04 262.08 210.71 261.36 211.12L247.71 218.96C247.327 219.211 247.01 219.55 246.784 219.948C246.558 220.346 246.43 220.793 246.41 221.25Z" fill="#FAFAFA"/>
<path d="M277.01 193.63L297.01 182.06C298.21 181.37 299.18 181.93 299.18 183.31V197.07C299.139 197.822 298.921 198.553 298.544 199.205C298.167 199.857 297.641 200.41 297.01 200.82L277.01 212.39C275.81 213.08 274.85 212.52 274.85 211.14V197.38C274.889 196.629 275.105 195.898 275.48 195.246C275.856 194.594 276.38 194.041 277.01 193.63Z" fill="#27DEBF"/>
<path d="M280.21 195.55L293.86 187.67C294.57 187.26 295.15 187.45 295.15 188.09C295.097 188.489 294.953 188.87 294.729 189.205C294.506 189.54 294.208 189.818 293.86 190.02L280.21 197.9C279.49 198.31 278.91 198.12 278.91 197.47C278.964 197.071 279.11 196.691 279.335 196.358C279.561 196.025 279.86 195.748 280.21 195.55Z" fill="#FAFAFA"/>
<path d="M278.91 202.49V206.49C278.91 207.32 279.49 207.65 280.21 207.24L293.86 199.36C294.235 199.111 294.548 198.778 294.772 198.388C294.996 197.997 295.125 197.56 295.15 197.11V193.11C295.15 192.28 294.56 191.95 293.85 192.36L280.2 200.24C279.823 200.487 279.51 200.82 279.286 201.211C279.062 201.602 278.933 202.04 278.91 202.49Z" fill="#FAFAFA"/>
<path d="M309.51 174.87L329.51 163.29C330.7 162.6 331.67 163.16 331.67 164.54V178.31C331.629 179.061 331.412 179.791 331.037 180.442C330.661 181.094 330.138 181.648 329.51 182.06L309.51 193.63C308.31 194.32 307.34 193.76 307.34 192.38V178.62C307.381 177.868 307.599 177.137 307.976 176.485C308.353 175.833 308.879 175.28 309.51 174.87Z" fill="#27DEBF"/>
<path d="M312.7 176.79L326.35 168.96C327.07 168.54 327.65 168.73 327.65 169.38C327.598 169.779 327.454 170.161 327.228 170.494C327.002 170.828 326.701 171.104 326.35 171.3L312.7 179.18C311.99 179.6 311.4 179.41 311.4 178.76C311.447 178.353 311.589 177.962 311.815 177.62C312.04 177.277 312.344 176.993 312.7 176.79Z" fill="#FAFAFA"/>
<path d="M311.4 183.73V187.73C311.4 188.55 311.99 188.89 312.7 188.48L326.35 180.59C326.729 180.344 327.044 180.012 327.27 179.621C327.496 179.23 327.626 178.791 327.65 178.34V174.34C327.65 173.51 327.07 173.17 326.35 173.59L312.7 181.47C312.321 181.718 312.005 182.052 311.78 182.444C311.554 182.837 311.424 183.278 311.4 183.73Z" fill="#FAFAFA"/>
<path d="M246.68 243.96L327.38 197.37C329.78 195.99 331.71 196.97 331.71 199.56C331.606 201.015 331.159 202.424 330.406 203.674C329.654 204.923 328.617 205.977 327.38 206.75L246.68 253.34C244.29 254.72 242.35 253.74 242.35 251.15C242.457 249.696 242.904 248.287 243.657 247.038C244.409 245.789 245.445 244.735 246.68 243.96Z" fill="#E0E0E0"/>
<path d="M246.68 262.73L327.38 216.14C329.78 214.76 331.71 215.74 331.71 218.33C331.606 219.785 331.159 221.194 330.406 222.444C329.654 223.693 328.617 224.747 327.38 225.52L246.68 272.12C244.29 273.5 242.35 272.52 242.35 269.92C242.457 268.466 242.904 267.057 243.657 265.808C244.409 264.559 245.445 263.505 246.68 262.73Z" fill="#E0E0E0"/>
<path d="M272.95 271.02L301.11 254.76C302.31 254.07 303.28 254.63 303.28 256.01V265.08C303.239 265.832 303.021 266.563 302.644 267.215C302.267 267.867 301.741 268.42 301.11 268.83L272.95 285.09C271.75 285.78 270.78 285.22 270.78 283.84V274.77C270.821 274.018 271.039 273.287 271.416 272.635C271.793 271.983 272.319 271.43 272.95 271.02Z" fill="#27DEBF"/>
<path d="M248.44 245.35C247.854 245.739 247.368 246.26 247.021 246.872C246.673 247.483 246.474 248.168 246.44 248.87C246.44 250.16 247.35 250.69 248.44 250.04C249.026 249.651 249.512 249.13 249.859 248.518C250.207 247.907 250.406 247.222 250.44 246.52C250.47 245.23 249.56 244.7 248.44 245.35Z" fill="#FAFAFA"/>
<path d="M254.88 241.63C254.293 242.018 253.806 242.539 253.459 243.151C253.111 243.762 252.913 244.447 252.88 245.15C252.88 246.44 253.78 246.97 254.88 246.32C255.466 245.931 255.952 245.41 256.299 244.798C256.647 244.187 256.846 243.502 256.88 242.8C256.91 241.51 256 240.96 254.88 241.63Z" fill="#FAFAFA"/>
<path d="M261.31 237.96C260.724 238.349 260.238 238.87 259.891 239.482C259.543 240.093 259.344 240.778 259.31 241.48C259.31 242.77 260.22 243.3 261.31 242.65C261.896 242.261 262.382 241.739 262.729 241.128C263.077 240.517 263.276 239.832 263.31 239.13C263.34 237.79 262.43 237.26 261.31 237.96Z" fill="#FAFAFA"/>
<path d="M267.75 234.19C267.164 234.578 266.677 235.1 266.33 235.711C265.982 236.323 265.784 237.007 265.75 237.71C265.75 239 266.66 239.53 267.75 238.88C268.336 238.491 268.822 237.97 269.169 237.358C269.517 236.747 269.716 236.062 269.75 235.36C269.78 234.07 268.87 233.54 267.75 234.19Z" fill="#FAFAFA"/>
<path d="M274.18 230.47C273.594 230.859 273.108 231.38 272.761 231.992C272.413 232.603 272.214 233.288 272.18 233.99C272.18 235.28 273.09 235.81 274.18 235.16C274.766 234.771 275.252 234.25 275.599 233.638C275.947 233.027 276.146 232.342 276.18 231.64C276.21 230.35 275.3 229.82 274.18 230.47Z" fill="#FAFAFA"/>
<path d="M280.61 226.75C280.024 227.139 279.538 227.66 279.191 228.272C278.843 228.883 278.644 229.568 278.61 230.27C278.61 231.56 279.52 232.09 280.61 231.44C281.197 231.052 281.684 230.531 282.031 229.919C282.379 229.308 282.577 228.623 282.61 227.92C282.64 226.63 281.74 226.1 280.61 226.75Z" fill="#FAFAFA"/>
<path d="M287.05 223.03C286.464 223.419 285.978 223.94 285.631 224.552C285.283 225.163 285.084 225.848 285.05 226.55C285.05 227.84 285.96 228.37 287.05 227.72C287.636 227.331 288.122 226.81 288.469 226.198C288.817 225.587 289.016 224.902 289.05 224.2C289.11 222.96 288.17 222.38 287.05 223.03Z" fill="#FAFAFA"/>
<path d="M248.44 264.13C247.855 264.52 247.37 265.042 247.023 265.653C246.676 266.264 246.476 266.948 246.44 267.65C246.44 268.95 247.35 269.47 248.44 268.82C249.026 268.433 249.512 267.914 249.859 267.304C250.207 266.694 250.406 266.011 250.44 265.31C250.47 264.01 249.56 263.49 248.44 264.13Z" fill="#FAFAFA"/>
<path d="M254.88 260.41C254.294 260.799 253.807 261.32 253.46 261.931C253.112 262.543 252.914 263.227 252.88 263.93C252.88 265.23 253.78 265.75 254.88 265.1C255.466 264.713 255.952 264.194 256.299 263.584C256.647 262.974 256.846 262.291 256.88 261.59C256.91 260.29 256 259.77 254.88 260.41Z" fill="#FAFAFA"/>
<path d="M261.31 256.69C260.725 257.08 260.24 257.602 259.893 258.213C259.546 258.824 259.346 259.508 259.31 260.21C259.31 261.51 260.22 262.03 261.31 261.38C261.896 260.993 262.382 260.474 262.729 259.864C263.077 259.254 263.276 258.571 263.31 257.87C263.34 256.57 262.43 256.04 261.31 256.69Z" fill="#FAFAFA"/>
<path d="M267.75 252.96C267.164 253.349 266.678 253.87 266.331 254.482C265.983 255.093 265.784 255.778 265.75 256.48C265.75 257.78 266.66 258.3 267.75 257.65C268.336 257.263 268.822 256.744 269.169 256.134C269.517 255.524 269.716 254.841 269.75 254.14C269.78 252.85 268.87 252.32 267.75 252.96Z" fill="#FAFAFA"/>
<path d="M274.18 249.25C273.594 249.639 273.108 250.16 272.761 250.772C272.413 251.383 272.214 252.068 272.18 252.77C272.18 254.07 273.09 254.59 274.18 253.94C274.766 253.553 275.252 253.034 275.599 252.424C275.947 251.814 276.146 251.131 276.18 250.43C276.21 249.13 275.3 248.6 274.18 249.25Z" fill="#FAFAFA"/>
<path d="M280.61 245.53C280.024 245.919 279.538 246.44 279.191 247.052C278.843 247.663 278.644 248.348 278.61 249.05C278.61 250.35 279.52 250.87 280.61 250.22C281.198 249.833 281.686 249.312 282.033 248.701C282.381 248.089 282.579 247.403 282.61 246.7C282.64 245.41 281.74 244.88 280.61 245.53Z" fill="#FAFAFA"/>
<path d="M287.05 241.81C286.464 242.199 285.978 242.72 285.631 243.332C285.283 243.943 285.084 244.628 285.05 245.33C285.05 246.63 285.96 247.15 287.05 246.5C287.636 246.111 288.123 245.59 288.47 244.979C288.818 244.367 289.016 243.683 289.05 242.98C289.11 241.69 288.17 241.16 287.05 241.81Z" fill="#FAFAFA"/>
<path d="M377.3 284.09C373.844 284.114 370.444 283.216 367.45 281.49C360.24 277.32 356.11 268.62 356.11 257.59C356.11 238.21 368.43 215.92 384.11 206.84C392.58 201.95 400.99 201.42 407.8 205.35C415 209.51 419.14 218.22 419.14 229.24C419.14 248.62 406.82 270.92 391.09 280C386.93 282.545 382.175 283.955 377.3 284.09ZM397.96 216.71C395.526 216.882 393.172 217.655 391.11 218.96C379.71 225.51 370.11 243.22 370.11 257.59C370.11 263.41 371.74 267.83 374.47 269.4C377.58 271.2 381.91 269.24 384.2 267.91C395.63 261.32 405.27 243.61 405.27 229.24C405.27 223.42 403.64 219.01 400.91 217.43C400.01 216.927 398.99 216.678 397.96 216.71Z" fill="#455A64"/>
<path d="M407.72 232.34C407.72 221.45 400.86 217.43 400.86 217.43C403.59 219.01 405.22 223.43 405.22 229.24C405.22 243.61 395.58 261.32 384.15 267.91C381.86 269.24 377.54 271.2 374.42 269.4C374.42 269.4 380.21 273 388.21 268.63C399.79 262.32 407.72 246.71 407.72 232.34Z" fill="#37474F"/>
<path d="M396.72 96.2499C396.65 94.3829 395.86 92.6155 394.514 91.3192C393.169 90.0228 391.373 89.2986 389.505 89.2986C387.637 89.2986 385.841 90.0228 384.496 91.3192C383.15 92.6155 382.359 94.3829 382.29 96.2499V210.96C382.342 211.603 382.565 212.22 382.936 212.748C383.307 213.275 383.812 213.694 384.4 213.96C385.981 214.759 387.728 215.175 389.5 215.175C391.272 215.175 393.019 214.759 394.6 213.96C395.19 213.696 395.698 213.279 396.071 212.751C396.444 212.223 396.668 211.604 396.72 210.96V96.2699V96.2499Z" fill="#37474F"/>
<path d="M390.96 121.89C390.881 120.443 390.462 119.036 389.738 117.782C389.013 116.527 388.003 115.461 386.79 114.67C386.362 114.356 385.855 114.166 385.326 114.12C384.797 114.074 384.266 114.174 383.79 114.41L366.01 124.66L365.58 124.91C365.515 124.937 365.454 124.974 365.4 125.02C365.097 125.225 364.813 125.455 364.55 125.71C363.547 126.709 362.937 128.036 362.832 129.448C362.726 130.86 363.132 132.263 363.975 133.401C364.818 134.538 366.042 135.335 367.423 135.645C368.805 135.955 370.252 135.758 371.5 135.09L371.84 134.89L389.75 124.58C390.172 124.279 390.506 123.871 390.718 123.398C390.931 122.926 391.014 122.405 390.96 121.89Z" fill="#455A64"/>
<path d="M390.96 150.61C390.879 149.165 390.46 147.76 389.736 146.507C389.011 145.255 388.002 144.19 386.79 143.4C386.364 143.082 385.858 142.889 385.328 142.841C384.799 142.794 384.266 142.894 383.79 143.13L362.93 155.13L362.5 155.38C362.435 155.408 362.375 155.445 362.32 155.49C362.015 155.692 361.73 155.923 361.47 156.18C360.819 156.828 360.327 157.62 360.035 158.491C359.742 159.362 359.657 160.29 359.785 161.2C359.913 162.11 360.251 162.978 360.773 163.735C361.294 164.491 361.985 165.116 362.79 165.56C363.658 166.021 364.627 166.261 365.61 166.26C366.59 166.264 367.556 166.024 368.42 165.56C368.54 165.5 368.65 165.42 368.76 165.36L389.76 153.36C390.189 153.052 390.527 152.634 390.739 152.15C390.95 151.666 391.026 151.134 390.96 150.61Z" fill="#455A64"/>
</g>
<defs>
<clipPath id="clip0_107_3175">
<rect width="464.22" height="402" fill="white"/>
</clipPath>
</defs>
</svg>
