<svg width="53" height="54" viewBox="0 0 53 54" fill="none" xmlns="http://www.w3.org/2000/svg">
<path d="M26.5776 47.25C25.1759 45.963 23.5917 44.6242 21.9162 43.2H21.8945C15.9944 38.205 9.30768 32.553 6.3544 25.7805C5.38413 23.6244 4.86994 21.2785 4.84622 18.9C4.83974 15.6363 6.10399 12.5077 8.35326 10.2212C10.6025 7.9347 13.647 6.68335 16.7985 6.74997C19.3641 6.75416 21.8745 7.5219 24.0307 8.96172C24.9781 9.5984 25.8353 10.3685 26.5776 11.25C27.324 10.372 28.1814 9.60231 29.1267 8.96172C31.2818 7.52161 33.7916 6.75383 36.3567 6.74997C39.5082 6.68335 42.5526 7.9347 44.8019 10.2212C47.0511 12.5077 48.3154 15.6363 48.3089 18.9C48.2867 21.2823 47.7725 23.6322 46.8007 25.7917C43.8474 32.5642 37.1629 38.214 31.2628 43.2L31.2411 43.218C29.5634 44.6332 27.9814 45.972 26.5797 47.268L26.5776 47.25ZM16.7985 11.25C14.7742 11.2237 12.8218 12.0259 11.3656 13.482C9.96263 14.9088 9.1785 16.8638 9.19232 18.9C9.21712 20.6336 9.59633 22.3421 10.3051 23.913C11.6992 26.8351 13.5803 29.4796 15.8618 31.725C18.0154 33.975 20.4928 36.153 22.6355 37.9845C23.2288 38.4907 23.8329 39.0015 24.437 39.5122L24.8173 39.834C25.3976 40.3245 25.9973 40.833 26.5776 41.3325L26.6058 41.3055L26.6189 41.2942H26.6319L26.6515 41.2785H26.6623H26.6732L26.7123 41.2447L26.8014 41.1705L26.8166 41.157L26.8405 41.139H26.8536L26.8731 41.121L28.3161 39.8947L28.6942 39.573C29.3048 39.0577 29.909 38.547 30.5022 38.0407C32.645 36.2092 35.1245 34.0335 37.2781 31.7722C39.5599 29.528 41.4411 26.8841 42.8348 23.9625C43.5564 22.378 43.941 20.6516 43.9627 18.9C43.9717 16.8701 43.1879 14.9226 41.7895 13.5C40.3361 12.0373 38.3834 11.2286 36.3567 11.25C33.8835 11.2282 31.5191 12.3015 29.859 14.1997L26.5776 18.1147L23.2961 14.1997C21.636 12.3015 19.2717 11.2282 16.7985 11.25Z" fill="#F2F2F2"/>
</svg>
