<svg width="40" height="40" viewBox="0 0 40 40" fill="none" xmlns="http://www.w3.org/2000/svg">
<g clip-path="url(#clip0_28_781)">
<path d="M20 3.33333C10.7917 3.33333 3.33337 10.7917 3.33337 20C3.33337 29.2083 10.7917 36.6667 20 36.6667C29.2084 36.6667 36.6667 29.2083 36.6667 20C36.6667 10.7917 29.2084 3.33333 20 3.33333ZM20 8.33333C22.7584 8.33333 25 10.575 25 13.3333C25 16.1 22.7584 18.3333 20 18.3333C17.2417 18.3333 15 16.1 15 13.3333C15 10.575 17.2417 8.33333 20 8.33333ZM20 32C15.825 32 12.1584 29.8667 10 26.6333C10.0417 23.325 16.675 21.5 20 21.5C23.325 21.5 29.95 23.325 30 26.6333C27.8417 29.8667 24.175 32 20 32Z" fill="white" fill-opacity="0.8"/>
</g>
<defs>
<clipPath id="clip0_28_781">
<rect width="40" height="40" fill="white"/>
</clipPath>
</defs>
</svg>
