<svg width="50" height="50" viewBox="0 0 50 50" fill="none" xmlns="http://www.w3.org/2000/svg">
<path d="M1.84006 37.1283L1.93365 37.0209C2.11051 36.8264 2.29671 36.6471 2.49109 36.4842C2.887 36.1425 3.3134 35.8666 3.7606 35.6629C4.1592 35.4815 4.56714 35.338 4.98128 35.2335V2.30274C1.81158 2.94686 1.83193 7.13366 1.8482 11.0574C1.86261 11.39 1.86261 11.7233 1.8482 12.0558V37.1283H1.84006ZM26.9129 42.2759C26.5793 42.9598 26.1147 43.5153 25.566 43.8862C25.1065 44.21 24.5937 44.3793 24.0727 44.3793C23.5518 44.3793 23.0389 44.21 22.5794 43.8862C22.2513 43.6442 21.9602 43.3239 21.7209 42.9415L26.9129 42.3027V42.2759ZM27.4255 22.1739C27.384 22.1151 27.3335 22.0685 27.2775 22.0371C27.2214 22.0057 27.1609 21.9901 27.1 21.9914C27.0385 21.99 26.9774 22.0055 26.9207 22.0369C26.8639 22.0683 26.8128 22.115 26.7704 22.1739L26.27 22.8341C26.1335 22.723 25.9906 22.6261 25.8427 22.5443C25.6956 22.4563 25.5448 22.3792 25.3911 22.3135V21.2829C25.3916 21.2023 25.38 21.1224 25.3569 21.0479C25.3337 20.9733 25.2996 20.9056 25.2564 20.8486C25.2132 20.7916 25.1619 20.7466 25.1054 20.7161C25.0488 20.6856 24.9883 20.6702 24.9272 20.671H23.9669C23.9065 20.6702 23.8465 20.6855 23.7906 20.716C23.7346 20.7464 23.6839 20.7913 23.6414 20.8481C23.5964 20.9035 23.5607 20.9709 23.5369 21.0459C23.513 21.1208 23.5015 21.2016 23.5031 21.2829V22.2115C23.3441 22.2603 23.1878 22.323 23.0352 22.3994C22.8881 22.4773 22.7441 22.5651 22.6038 22.6624L22.0505 21.9431C22.0106 21.8831 21.961 21.8355 21.9054 21.8039C21.8498 21.7724 21.7895 21.7576 21.729 21.7606C21.6675 21.7595 21.6065 21.7752 21.5498 21.8066C21.4931 21.838 21.4419 21.8844 21.3994 21.9431L20.7281 22.8341C20.6836 22.8902 20.6484 22.9577 20.6246 23.0325C20.6008 23.1073 20.5889 23.1878 20.5897 23.2689C20.5887 23.3493 20.6005 23.429 20.6244 23.503C20.6482 23.577 20.6835 23.6435 20.7281 23.6983L21.2245 24.3639C21.1389 24.5354 21.0627 24.7148 20.9966 24.9007C20.9293 25.0951 20.8695 25.294 20.8176 25.4965H20.0486C19.988 25.4952 19.9279 25.5102 19.8719 25.5406C19.8159 25.5711 19.7653 25.6164 19.723 25.6736C19.6789 25.7298 19.6442 25.7974 19.621 25.8723C19.5979 25.9472 19.5869 26.0276 19.5888 26.1084V27.3806C19.5888 27.5414 19.6372 27.6957 19.7234 27.8095C19.8097 27.9232 19.9266 27.9871 20.0486 27.9871H20.7525C20.7884 28.1978 20.8374 28.4043 20.899 28.6044C20.9554 28.8034 21.022 28.9971 21.0983 29.1841L20.549 29.9249C20.5052 29.9793 20.4703 30.045 20.4465 30.1179C20.4227 30.1909 20.4105 30.2695 20.4107 30.3489C20.4108 30.4298 20.4231 30.5099 20.4468 30.5846C20.4706 30.6592 20.5053 30.7269 20.549 30.7837L21.2245 31.6694C21.3141 31.7791 21.4318 31.8402 21.5541 31.8402C21.6763 31.8402 21.7941 31.7791 21.8836 31.6694L22.3801 31.0145C22.5109 31.1273 22.6467 31.2294 22.787 31.3205C22.9358 31.4076 23.0879 31.4846 23.2427 31.5513V32.5658C23.2421 32.6459 23.2536 32.7253 23.2765 32.7995C23.2994 32.8737 23.3331 32.9412 23.3759 32.9981C23.4186 33.055 23.4695 33.1002 23.5256 33.131C23.5816 33.1618 23.6417 33.1777 23.7025 33.1777H24.6668C24.7898 33.1777 24.9078 33.1132 24.9948 32.9984C25.0818 32.8837 25.1307 32.728 25.1307 32.5658V31.6371C25.302 31.5905 25.4706 31.5277 25.6352 31.4493C25.7743 31.3712 25.9101 31.2834 26.0421 31.1863L26.5873 31.9055C26.6291 31.9632 26.6793 32.0091 26.7349 32.0404C26.7905 32.0717 26.8504 32.0879 26.9108 32.0879C26.9713 32.0879 27.0311 32.0717 27.0867 32.0404C27.1423 32.0091 27.1925 31.9632 27.2343 31.9055L27.9179 31.0145C27.9642 30.9623 28.0021 30.8983 28.0294 30.8264C28.0566 30.7545 28.0727 30.6761 28.0766 30.5958C28.0781 30.5163 28.0674 30.4372 28.045 30.3634C28.0226 30.2896 27.989 30.2225 27.9464 30.1664L27.4255 29.4847C27.5147 29.3151 27.5923 29.1355 27.6575 28.9479C27.7248 28.7535 27.7846 28.5546 27.8365 28.3521H28.6015C28.6625 28.3528 28.7231 28.3375 28.7796 28.307C28.8361 28.2765 28.8875 28.2315 28.9307 28.1745C28.9739 28.1175 29.008 28.0498 29.0311 27.9752C29.0542 27.9007 29.0659 27.8208 29.0653 27.7402V26.4466C29.0654 26.3669 29.0536 26.2879 29.0306 26.2143C29.0075 26.1406 28.9737 26.0736 28.931 26.0172C28.8882 25.9595 28.8369 25.914 28.7802 25.8835C28.7235 25.8531 28.6627 25.8383 28.6015 25.84H27.9016C27.8621 25.6324 27.8132 25.4281 27.7551 25.2281C27.701 25.0296 27.6343 24.8375 27.5557 24.6538L28.101 23.9238C28.1462 23.8705 28.1822 23.8051 28.2068 23.732C28.2313 23.6589 28.2438 23.5797 28.2434 23.4997C28.2435 23.4183 28.2308 23.3377 28.2063 23.2629C28.1819 23.1881 28.146 23.1207 28.101 23.0649L27.4255 22.1739ZM24.7726 11.6318C24.791 11.34 24.8963 11.0697 25.0656 10.8803C25.1468 10.7878 25.2411 10.7174 25.3431 10.6732C25.445 10.629 25.5526 10.6118 25.6596 10.6227H25.7166C25.919 10.6604 26.1041 10.7939 26.2374 10.9984C26.313 11.1071 26.3708 11.2351 26.4072 11.3746C26.4436 11.514 26.4578 11.6619 26.449 11.8089C26.449 11.8089 26.449 11.8465 26.449 11.8626L26.3066 14.1975C26.3066 14.1975 26.3066 14.2458 26.3066 14.2727C26.2764 14.5467 26.1693 14.7959 26.0066 14.9708C25.8438 15.1457 25.6373 15.2337 25.4277 15.2174H25.3667C25.1564 15.1849 24.9641 15.0457 24.8304 14.8293C24.6967 14.6128 24.6322 14.3361 24.6505 14.058C24.6485 14.0402 24.6485 14.0221 24.6505 14.0043L24.7889 11.6586L24.7726 11.6318ZM15.4629 15.0671C15.3076 14.8609 15.2204 14.5821 15.2204 14.2915C15.2204 14.0008 15.3076 13.722 15.4629 13.5158C15.6234 13.3155 15.836 13.2041 16.0569 13.2045C16.1662 13.2065 16.274 13.2374 16.3739 13.2955C16.4739 13.3536 16.564 13.4377 16.6388 13.5427L17.9042 15.2711C18.0561 15.4828 18.1405 15.7633 18.1402 16.0548C18.1364 16.2715 18.084 16.4819 17.9899 16.6595C17.8957 16.8372 17.7638 16.9742 17.6108 17.0533C17.4578 17.1324 17.2905 17.1502 17.1298 17.1043C16.9692 17.0584 16.8225 16.951 16.708 16.7955L15.4629 15.0671ZM12.7814 26.9673C12.5609 26.9602 12.3515 26.8382 12.199 26.628C12.0465 26.4177 11.9633 26.1364 11.9676 25.8454C11.9697 25.7009 11.9938 25.5585 12.0385 25.4266C12.0833 25.2947 12.1477 25.1761 12.2281 25.0778C12.3067 24.9777 12.3998 24.8994 12.5019 24.8478C12.604 24.7961 12.7129 24.7721 12.8221 24.7772L14.6409 24.8256C14.751 24.8254 14.8599 24.8547 14.9611 24.9116C15.0623 24.9686 15.1537 25.052 15.2297 25.1569C15.3058 25.2617 15.3649 25.3858 15.4036 25.5217C15.4423 25.6576 15.4597 25.8024 15.4547 25.9474V25.9903C15.4379 26.2599 15.3467 26.512 15.1984 26.6989C15.1201 26.8 15.0271 26.8792 14.925 26.9318C14.8229 26.9844 14.7139 27.0092 14.6043 27.0048H14.5718L12.7733 26.9512L12.7814 26.9673ZM35.8075 25.2281H35.836C35.9449 25.2238 36.0534 25.2484 36.155 25.3004C36.2565 25.3524 36.3491 25.4308 36.4273 25.5309C36.5055 25.6311 36.5676 25.7509 36.61 25.8833C36.6524 26.0157 36.6743 26.1579 36.6742 26.3017C36.6775 26.4431 36.6595 26.584 36.6213 26.7162C36.5832 26.8485 36.5256 26.9694 36.4518 27.0722C36.3781 27.175 36.2897 27.2575 36.1917 27.315C36.0937 27.3725 35.988 27.4039 35.8808 27.4074L34.066 27.5255C33.957 27.5335 33.8478 27.5124 33.745 27.4635C33.6423 27.4146 33.548 27.339 33.4679 27.241C33.3863 27.1454 33.3201 27.0291 33.2733 26.8991C33.2265 26.7691 33.1999 26.628 33.1953 26.4842C33.1853 26.194 33.2627 25.9105 33.4106 25.6953C33.5584 25.4801 33.7648 25.3508 33.9847 25.3355C34.5909 25.2925 35.2053 25.2442 35.8075 25.212V25.2281ZM32.6297 15.4321C32.6939 15.3155 32.7753 15.2171 32.869 15.1428C32.9627 15.0686 33.0668 15.02 33.175 15C33.2832 14.9799 33.3934 14.9889 33.4989 15.0262C33.6045 15.0636 33.7033 15.1286 33.7894 15.2174C33.8766 15.3029 33.95 15.4106 34.0053 15.5341C34.0605 15.6576 34.0964 15.7945 34.1108 15.9367C34.1268 16.0789 34.1211 16.2239 34.0938 16.3632C34.0666 16.5024 34.0184 16.633 33.9521 16.7472L32.8576 18.6688C32.7927 18.7855 32.7106 18.8838 32.6162 18.9576C32.5218 19.0314 32.417 19.0792 32.3083 19.0982C32.1421 19.143 31.9695 19.1183 31.8146 19.0274C31.6597 18.9365 31.5301 18.784 31.4441 18.5912C31.358 18.3985 31.3197 18.1751 31.3346 17.9523C31.3495 17.7294 31.4168 17.5183 31.527 17.3484L32.6256 15.4267L32.6297 15.4321ZM19.1249 34.2244C18.8645 33.7627 18.5837 33.2797 18.3111 32.7053C17.9892 32.0931 17.7165 31.4382 17.4973 30.7515C17.2731 30.0321 17.1067 29.2837 17.0009 28.5185V28.4917C16.9011 27.7371 16.8683 26.9697 16.9033 26.205C16.9456 25.4044 17.0604 24.6133 17.2451 23.8486C17.4471 23.0213 17.7202 22.2271 18.0588 21.4815L18.1117 21.3741C18.5361 20.5362 19.0579 19.7917 19.6579 19.168C20.2627 18.5376 20.9436 18.0458 21.6721 17.7134H21.725C22.2704 17.4698 22.8359 17.313 23.4095 17.2464C24.0132 17.1774 24.621 17.2027 25.2202 17.3215C25.8074 17.4332 26.3834 17.6313 26.9373 17.912L26.9942 17.9442C27.5248 18.2211 28.0321 18.5701 28.5079 18.9855C29.1489 19.5477 29.7188 20.2397 30.1965 21.036C30.6642 21.8098 31.0288 22.6828 31.2748 23.6178C31.4167 24.1543 31.5242 24.7055 31.5962 25.2657C31.6694 25.8618 31.7007 26.4655 31.6898 27.0692C31.677 27.7447 31.6074 28.4162 31.4823 29.0714C31.3592 29.7474 31.1819 30.4042 30.9533 31.0306C30.3714 32.4724 29.664 33.8199 28.8456 35.0456C28.4387 35.7166 28.0318 36.3822 27.6819 37.0263C27.6088 37.1629 27.5072 37.2685 27.3895 37.3304C27.2717 37.3924 27.1429 37.4079 27.0186 37.3752L20.9844 38.1106C20.8325 38.1305 20.6802 38.0789 20.5544 37.9649C20.4285 37.851 20.3373 37.682 20.2968 37.4879C20.165 36.853 19.9935 36.2336 19.7841 35.6361C19.6043 35.135 19.3832 34.6616 19.1249 34.2244ZM19.365 31.766C19.601 32.2383 19.8777 32.7053 20.1503 33.1616C20.4701 33.7031 20.743 34.29 20.9641 34.9114C21.1277 35.3765 21.2717 35.8532 21.3954 36.3392L26.8152 35.6736C27.1285 35.1369 27.4784 34.5464 27.8284 33.9721C28.5771 32.8503 29.2294 31.6226 29.7733 30.3113C29.9634 29.7853 30.112 29.2349 30.2168 28.6688C30.3169 28.1417 30.3728 27.6017 30.3837 27.0585C30.3953 26.5607 30.3694 26.0627 30.3063 25.5717C30.2476 25.1081 30.1591 24.652 30.0419 24.2083C29.8448 23.4541 29.5517 22.7498 29.1752 22.1256C28.783 21.4566 28.3134 20.8734 27.7836 20.3972C27.3875 20.0497 26.9647 19.7582 26.5222 19.5276H26.4734C26.0084 19.2943 25.5254 19.1287 25.033 19.0338C24.5333 18.9372 24.0269 18.9156 23.5234 18.9694C23.0554 19.023 22.5938 19.1491 22.1481 19.3451H22.0952C21.5069 19.6073 20.9565 19.9993 20.4677 20.5046C19.9745 21.0134 19.5472 21.6243 19.2022 22.3135V22.3457C18.9156 22.9749 18.6835 23.6447 18.5105 24.3425C18.3533 24.9773 18.2562 25.6354 18.2216 26.3017C18.1917 26.9299 18.2191 27.5607 18.303 28.1804C18.3893 28.8286 18.5257 29.4635 18.7099 30.0751C18.8896 30.6524 19.1103 31.2059 19.369 31.7284L19.365 31.766ZM24.325 23.548C24.6688 23.545 25.0094 23.6345 25.326 23.8111C25.6296 23.9799 25.9059 24.2241 26.1398 24.5303C26.3719 24.84 26.5582 25.2041 26.6891 25.6039C26.9496 26.4469 26.9496 27.391 26.6891 28.234C26.5582 28.6338 26.3719 28.9979 26.1398 29.3076C25.9059 29.6138 25.6296 29.858 25.326 30.0268C25.0094 30.2003 24.6699 30.2896 24.327 30.2896C23.9842 30.2896 23.6447 30.2003 23.3281 30.0268C23.0245 29.858 22.7482 29.6138 22.5143 29.3076C22.2822 28.9979 22.0959 28.6338 21.965 28.234C21.8334 27.8173 21.7656 27.3704 21.7656 26.919C21.7656 26.4675 21.8334 26.0206 21.965 25.6039C22.0959 25.2041 22.2822 24.84 22.5143 24.5303C22.7482 24.2241 23.0245 23.9799 23.3281 23.8111C23.6433 23.6345 23.9826 23.545 24.325 23.548ZM27.5802 38.5078V38.9533V39.109C27.5869 39.4011 27.5774 39.6936 27.5517 39.9839L27.4255 40.6173L21.1024 41.3902L21.0088 41.0521L20.8176 39.7209V39.3344L27.5517 38.5078H27.5802ZM49.9634 15.0295V49.2485H42.9445V15.0295H42.916L43.156 14.3908L46.0531 6.53784L46.3461 5.73269L46.6553 6.52174L49.7396 14.38L50 15.0295H49.9634ZM44.0024 14.1331H48.8851L46.9402 9.19485H45.8171L43.9943 14.1331H44.0024ZM6.64548 36.1997C6.63303 36.4402 6.56324 36.6694 6.4461 36.8545C6.31587 37.0575 6.13318 37.1895 5.93341 37.2249H5.91307C5.45107 37.314 4.99427 37.4449 4.54591 37.6167C4.14732 37.7713 3.76772 38.0009 3.41881 38.2984C3.08123 38.5959 2.78525 38.9682 2.54399 39.3988C2.24811 39.9294 2.006 40.5086 1.82379 41.1219C1.79369 41.9531 1.84153 42.786 1.9662 43.6017C2.07489 44.3047 2.28784 44.9723 2.59282 45.5663C2.91357 46.1498 3.33107 46.6289 3.8135 46.9673C4.41569 47.3822 5.06617 47.6616 5.73811 47.7939H40.7635C40.7966 47.7939 40.8295 47.8025 40.8601 47.8192C40.8907 47.8359 40.9185 47.8605 40.9419 47.8914C40.9653 47.9223 40.9839 47.9589 40.9966 47.9993C41.0093 48.0397 41.0158 48.083 41.0158 48.1267V49.2002V49.4096L41.0361 49.6189C41.0467 49.7057 41.0308 49.7945 40.992 49.8659C40.9531 49.9373 40.8944 49.9855 40.8286 50H5.69742C4.83771 49.9414 4.00089 49.6139 3.25605 49.0446C2.46029 48.5023 1.76548 47.7342 1.22159 46.7955C0.796351 45.9895 0.494995 45.0813 0.334557 44.1224C0.164896 43.0535 0.104682 41.9595 0.155524 40.8696C0.155524 31.2507 -0.194405 20.5207 0.155524 11.0413C0.143317 8.46484 0.13111 5.78637 0.814692 3.7037C1.49827 1.62104 2.91426 0.0697799 5.72183 0H5.80728C6.03084 0.000527515 6.24542 0.11607 6.40541 0.322061C6.56156 0.533115 6.64915 0.816195 6.64955 1.11111V6.37681H43.5833C43.6502 6.37681 43.7144 6.41187 43.7617 6.47429C43.809 6.5367 43.8356 6.62135 43.8356 6.70961C43.836 6.76861 43.8233 6.82648 43.7989 6.87601L43.2334 8.4058C43.2138 8.46223 43.1822 8.50999 43.1425 8.54333C43.1028 8.57666 43.0566 8.59414 43.0096 8.59367H6.64955V36.1997H6.64548Z" fill="white"/>
</svg>
