<svg width="25" height="26" viewBox="0 0 25 26" fill="none" xmlns="http://www.w3.org/2000/svg">
<path d="M13.5366 25.5417C13.3383 25.5417 13.14 25.5417 12.9416 25.53C6.40831 25.2383 0.948314 19.9767 0.493314 13.56C0.096647 8.05333 3.28165 2.90833 8.41498 0.749996C9.87331 0.14333 10.6433 0.609996 10.97 0.948329C11.2966 1.275 11.7516 2.03333 11.145 3.42166C10.6083 4.65833 10.34 5.97666 10.3516 7.33C10.375 12.4983 14.6683 16.885 19.9066 17.095C20.665 17.13 21.4116 17.0717 22.135 16.9433C23.675 16.6633 24.3166 17.2817 24.5616 17.6783C24.8066 18.075 25.0866 18.9267 24.1533 20.1867C21.68 23.57 17.7483 25.5417 13.5366 25.5417ZM2.23165 13.4317C2.62831 18.985 7.36498 23.535 13.0116 23.78C16.85 23.9667 20.49 22.2167 22.73 19.16C22.905 18.915 22.9866 18.74 23.0216 18.6467C22.9166 18.635 22.73 18.6233 22.4383 18.6817C21.5866 18.8333 20.7 18.8917 19.825 18.8567C13.665 18.6117 8.62498 13.4433 8.58998 7.35333C8.58998 5.74333 8.90498 4.19166 9.54665 2.73333C9.66331 2.47666 9.68665 2.30166 9.69831 2.20833C9.59331 2.20833 9.40665 2.23166 9.10331 2.36C4.65831 4.22666 1.90498 8.68333 2.23165 13.4317Z" fill="white"/>
</svg>
