<svg width="22" height="24" viewBox="0 0 22 24" fill="none" xmlns="http://www.w3.org/2000/svg">
<path d="M19.1 5.25H2.9C2.531 5.25 2.225 4.91 2.225 4.5C2.225 4.09 2.531 3.75 2.9 3.75H19.1C19.469 3.75 19.775 4.09 19.775 4.5C19.775 4.91 19.469 5.25 19.1 5.25Z" fill="white"/>
<path d="M11.423 10.25H2.9C2.531 10.25 2.225 9.91 2.225 9.5C2.225 9.09 2.531 8.75 2.9 8.75H11.423C11.792 8.75 12.098 9.09 12.098 9.5C12.098 9.91 11.801 10.25 11.423 10.25Z" fill="white"/>
<path d="M19.1 15.25H2.9C2.531 15.25 2.225 14.91 2.225 14.5C2.225 14.09 2.531 13.75 2.9 13.75H19.1C19.469 13.75 19.775 14.09 19.775 14.5C19.775 14.91 19.469 15.25 19.1 15.25Z" fill="white"/>
<path d="M11.423 20.25H2.9C2.531 20.25 2.225 19.91 2.225 19.5C2.225 19.09 2.531 18.75 2.9 18.75H11.423C11.792 18.75 12.098 19.09 12.098 19.5C12.098 19.91 11.801 20.25 11.423 20.25Z" fill="white"/>
</svg>
